<?xml version="1.0" standalone="no"?>
<!DOCTYPE svg PUBLIC "-//W3C//DTD SVG 20010904//EN"
 "http://www.w3.org/TR/2001/REC-SVG-20010904/DTD/svg10.dtd">
<svg version="1.0" xmlns="http://www.w3.org/2000/svg"
 width="400.000000pt" height="281.000000pt" viewBox="0 0 400.000000 281.000000"
 preserveAspectRatio="xMidYMid meet">
<metadata>
Created by potrace 1.10, written by Peter Selinger 2001-2011
</metadata>
<g transform="translate(0.000000,281.000000) scale(0.100000,-0.100000)"
fill="#000000" stroke="none">
<path d="M1620 2792 c0 -10 -24 -35 -55 -57 -141 -102 -173 -221 -111 -400 19
-55 488 -1066 537 -1156 9 -18 46 54 280 552 161 341 278 603 291 648 40 148
6 255 -113 345 -35 27 -65 57 -67 67 -4 22 -32 26 -32 5 0 -30 14 -47 76 -91
118 -85 148 -185 101 -340 -22 -75 -514 -1135 -526 -1135 -9 0 -498 1047 -521
1114 -30 90 -35 154 -16 217 18 60 41 90 112 144 27 21 54 45 61 54 17 22 16
51 -2 51 -8 0 -15 -8 -15 -18z"/>
<path d="M0 2753 c0 -10 29 -41 65 -71 69 -55 130 -132 198 -246 22 -37 291
-600 596 -1250 373 -792 562 -1182 573 -1184 11 -2 -154 359 -526 1150 -299
634 -559 1185 -579 1224 -81 160 -191 298 -297 374 -28 20 -30 20 -30 3z"/>
<path d="M3933 2720 c-81 -65 -147 -147 -221 -278 -52 -91 -1152 -2417 -1152
-2436 0 -48 109 173 579 1173 304 648 581 1225 615 1281 59 99 146 200 215
251 20 15 32 31 30 41 -3 13 -17 6 -66 -32z"/>
<path d="M386 2579 c74 -109 91 -144 637 -1304 261 -556 487 -1036 503 -1068
l28 -57 449 2 449 3 532 1130 c505 1073 575 1216 643 1310 16 22 32 46 37 53
6 9 -94 12 -487 12 l-494 0 26 -52 c35 -71 36 -180 3 -288 -13 -41 -174 -395
-358 -787 -184 -391 -338 -722 -343 -735 -8 -21 -11 -17 -38 42 -17 36 -172
367 -346 736 -174 370 -326 705 -339 745 -33 109 -32 218 4 287 l27 52 -494 0
-494 0 55 -81z m904 59 c0 -4 -4 -9 -8 -12 -5 -3 -15 -30 -22 -60 -17 -74 -8
-193 23 -281 22 -62 167 -378 563 -1225 69 -146 131 -271 139 -280 13 -13 17
-12 33 5 23 25 672 1415 703 1505 14 42 23 99 27 161 4 81 1 103 -16 142 l-20
46 26 5 c33 7 881 0 889 -7 3 -3 -6 -21 -20 -39 -47 -62 -138 -238 -287 -553
-23 -49 -69 -145 -101 -212 -32 -67 -59 -124 -59 -126 0 -3 -33 -74 -74 -158
-40 -85 -92 -194 -116 -244 -23 -49 -68 -144 -100 -210 -102 -214 -158 -331
-240 -510 -15 -33 -56 -118 -90 -190 -34 -72 -71 -149 -82 -173 l-20 -42 -439
2 -439 3 -76 160 c-42 88 -111 234 -154 325 -43 91 -121 257 -175 370 -53 113
-114 241 -135 285 -21 44 -104 220 -185 390 -81 171 -163 344 -182 385 -88
188 -194 392 -239 460 -27 41 -51 79 -53 84 -2 4 206 6 463 5 256 -2 466 -7
466 -11z"/>
</g>
</svg>
