<?xml version="1.0" encoding="utf-8"?>
<!-- Generator: Adobe Illustrator 26.0.3, SVG Export Plug-In . SVG Version: 6.00 Build 0)  -->
<svg version="1.0" id="katman_1" xmlns="http://www.w3.org/2000/svg" xmlns:xlink="http://www.w3.org/1999/xlink" x="0px" y="0px"
	 viewBox="0 0 600 450" style="enable-background:new 0 0 600 450;" xml:space="preserve">
<style type="text/css">
	.st0{fill:#1C1C1C;}
	.st1{fill:url(#SVGID_1_);}
	.st2{fill:url(#SVGID_00000161615727241462805910000018068776589992586376_);}
	.st3{fill:url(#SVGID_00000052782587104957016040000008223759380542335916_);}
	.st4{fill:url(#SVGID_00000065061675229608563830000011581429524496445878_);}
</style>
<path class="st0" d="M226.4,223.7L215,199c-1.2-2.6-1.9-3.3-4.2-4.3v-0.6h13.8v0.6c-3.3,1-3.8,1.9-2.7,4.3l9,19.9l8.4-18.8
	c1.1-2.4,0.4-3.9-4.7-5.4v-0.6h12v0.6c-1.9,0.9-2.6,1.7-3.8,4.3l-11.4,24.7C231.3,223.7,226.4,223.7,226.4,223.7z M256,199.5
	c1.1-2.4,0.6-3.6-2.8-4.7v-0.6h10.2l11.4,24.7c1.2,2.6,1.7,3.3,3.4,4.3v0.6h-13v-0.6c3.3-1,3.8-1.9,2.7-4.3l-1.9-4.3h-14l-1.4,3.2
	c-1.1,2.4-0.4,3.9,4.7,5.4v0.6h-12v-0.6c2-1.2,2.9-2.2,4.1-4.9L256,199.5L256,199.5z M253.1,211.9h11.7l-5.9-13L253.1,211.9z
	 M312.2,223.7h-4l-21.3-23.8v15.5c0,4.8,0.7,5.9,5.9,7.7v0.6h-12.4v-0.6c3.2-1.7,3.7-2.9,3.7-7.7v-14.2c0-4.8-0.7-5.6-4.1-6.5v-0.6
	h10.1l19.3,21.5v-13.2c0-4.8-0.7-5.9-5.9-7.7v-0.6h12.4v0.6c-3.2,1.7-3.7,2.9-3.7,7.7L312.2,223.7L312.2,223.7z M320.1,223.7v-0.6
	c3.4-0.9,4.1-1.7,4.1-6.5v-15.4c0-4.8-0.7-5.6-4.1-6.5v-0.6h16.7c9.7,0,18.3,6.3,18.3,14.8c0,8.5-8.6,14.8-18.3,14.8
	C336.9,223.7,320.1,223.7,320.1,223.7z M330.4,221.1h6.3c6.7,0,11.5-3.7,11.5-12.2c0-8.4-4.8-12.2-11.5-12.2h-6.3V221.1L330.4,221.1
	z M358.1,194.1h29.1l1,10.2h-0.6c-3.8-6.9-5.9-7.6-9.6-7.6h-9.5v10.5h6.2c1.8,0,2.7-0.5,5.5-5.6h0.6v13.8h-0.6
	c-2.8-5.1-3.7-5.6-5.5-5.6h-6.2v11.3h9.3c4.1,0,6.3-1.1,10.3-8.4h0.6l-1,11h-29.5v-0.6c3.4-0.9,4.1-1.7,4.1-6.5v-15.4
	c0-4.8-0.7-5.6-4.1-6.5L358.1,194.1L358.1,194.1z M408.6,223.1v0.6h-14.8v-0.6c3.4-0.9,4.1-1.7,4.1-6.5v-15.4c0-4.8-0.7-5.6-4.1-6.5
	v-0.6h16.8c9.8,0,14.6,2.8,14.6,7.6c0,3.5-3.5,6-9.6,6.7c4.1,0.6,5.9,2.6,7.6,6.4l2.2,5c0.9,2.1,1.4,2.6,3.2,3.3v0.6h-4.4
	c-3.5,0-4.6-0.9-5.8-4l-2-5.4c-1.4-3.8-2.6-4.6-6.1-4.6h-6.2v6.9C404.1,221.4,404.8,222.2,408.6,223.1L408.6,223.1z M418.5,201.9
	c0-3.7-2.6-5.2-8.2-5.2h-6.1v10.4h6.1C415.8,207.1,418.5,205.6,418.5,201.9L418.5,201.9z M447.1,223.7h-16.4v-0.6
	c3.3-0.9,3.9-1.7,3.9-6.5v-15.4c0-4.8-0.7-5.6-4.1-6.5v-0.6h16c9.7,0,14.5,2.8,14.5,7.1c0,3.7-3.5,6.1-9.9,6.7
	c7.2,0.5,11.3,3.6,11.3,7.6C462.5,220.5,457.4,223.7,447.1,223.7L447.1,223.7L447.1,223.7z M446.2,207c5.4,0,8.1-1.5,8.1-5.1
	s-2.7-5.1-8.1-5.1h-5.4V207H446.2z M446.9,221.1c5.9,0,8.7-1.7,8.7-5.8c0-4.1-2.8-5.8-8.7-5.8h-6v11.5L446.9,221.1L446.9,221.1z
	 M480.4,223.7H466v-0.6c3.4-0.9,4.1-1.7,4.1-6.5v-15.4c0-4.8-0.7-5.6-4.1-6.5v-0.6h14.4v0.6c-3.4,0.9-4.1,1.7-4.1,6.5v15.4
	c0,4.8,0.7,5.6,4.1,6.5V223.7L480.4,223.7z M484.7,223.7v-0.6c3.4-0.9,4.1-1.7,4.1-6.5v-15.4c0-4.8-0.7-5.6-4.1-6.5v-0.6h14.8v0.6
	c-3.8,0.9-4.5,1.7-4.5,6.5v19.9h7.8c4.5,0,6.8-1.5,10.8-9.2h0.6l-1.1,11.8H484.7L484.7,223.7z M515.2,194.1h29.8l1,10.6h-0.6
	c-3.8-6.9-5.9-8-9.7-8h-2.5v19.9c0,4.8,0.7,5.6,4.5,6.5v0.6h-15.1v-0.6c3.8-0.9,4.5-1.7,4.5-6.5v-19.9h-2.5c-3.8,0-5.8,1.1-9.7,8
	h-0.6C514.2,204.7,515.2,194.1,515.2,194.1z M236.4,237.7h12.2v0.6c-3.1,1.7-3.5,2.9-3.5,7.7v9.7c0,7.8-4.8,12-13.7,12
	c-8.7,0-13.6-3.6-13.6-11v-11.8c0-4.8-0.7-5.6-4.1-6.5v-0.6h14.8v0.6c-3.8,0.9-4.5,1.7-4.5,6.5v11.8c0,6.2,3.5,8.2,9.2,8.2
	c5.9,0,9.2-2.8,9.2-9.2V246c0-4.8-0.7-5.9-5.9-7.7C236.4,238.3,236.4,237.7,236.4,237.7z M284.8,267.3h-4l-21.3-23.8V259
	c0,4.8,0.7,5.9,5.9,7.7v0.6h-12.7v-0.6c3.4-1.7,4.1-2.9,4.1-7.7v-14.2c0-4.8-0.6-5.6-3.9-6.5v-0.6h9.9l19.3,21.5V246
	c0-4.8-0.7-5.9-5.9-7.7v-0.6h12.4v0.6c-3.2,1.7-3.7,2.9-3.7,7.7C284.8,246,284.8,267.3,284.8,267.3z M307.1,267.3h-14.4v-0.6
	c3.4-0.9,4.1-1.7,4.1-6.5v-15.4c0-4.8-0.7-5.6-4.1-6.5v-0.6h14.2v0.6c-3.3,0.9-3.9,1.7-3.9,6.5v15.4c0,4.8,0.7,5.6,4.1,6.5V267.3z
	 M324.1,267.3l-11.4-24.7c-1.2-2.6-1.8-3.3-3.6-4.3v-0.6h13.2v0.6c-3.3,1-3.8,1.9-2.7,4.3l9,19.9l8.4-18.8c1.1-2.4,0.4-3.9-4.7-5.4
	v-0.6h12v0.6c-1.9,0.9-2.6,1.7-3.8,4.3L329,267.3L324.1,267.3L324.1,267.3z M346,237.7h29.1l1,10.2h-0.6c-3.8-6.9-5.9-7.6-9.6-7.6
	h-9.5v10.5h6.2c1.8,0,2.7-0.5,5.5-5.6h0.6V259H368c-2.8-5.1-3.7-5.6-5.5-5.6h-6.2v11.3h9.3c4.1,0,6.3-1.1,10.3-8.4h0.6l-1,11H346
	v-0.6c3.4-0.9,4.1-1.7,4.1-6.5v-15.4c0-4.8-0.7-5.6-4.1-6.5V237.7L346,237.7z M396.5,266.7v0.6h-14.8v-0.6c3.4-0.9,4.1-1.7,4.1-6.5
	v-15.4c0-4.8-0.7-5.6-4.1-6.5v-0.6h16.8c9.8,0,14.6,2.8,14.6,7.6c0,3.5-3.6,6-9.6,6.7c4.1,0.6,6,2.6,7.7,6.4l2.3,5
	c0.9,2,1.7,2.7,3.9,3.4v0.6h-5.2c-3.5,0-4.5-0.9-5.8-4l-2.1-5.4c-1.5-3.8-2.6-4.6-6.1-4.6h-6.3v6.9
	C392.1,265.1,392.7,265.8,396.5,266.7L396.5,266.7z M406.4,245.5c0-3.7-2.6-5.2-8.2-5.2h-6.1v10.4h6.1
	C403.8,250.7,406.4,249.2,406.4,245.5L406.4,245.5z M450,258.3c0,5.3-5.5,9.4-14.7,9.4c-4,0-8.2-0.8-11.5-2.4l-2.2,2.2H421l-1.2-12
	h0.6c4.7,6.5,10.4,10,15.9,10c6.3,0,9.1-2.3,9.1-4.7c0-1.8-1.2-3.5-5.2-4.2l-9.2-1.8c-7.2-1.4-10-4.4-10-8.4c0-4.8,4.5-9.1,13.6-9.1
	c3.4,0,7,0.8,10.5,2.2l2-2h0.6l1,10.8h-0.6c-4.9-6.4-9.7-8.8-14-8.8c-6.1,0-8.7,2.3-8.7,4.5c0,2,1.4,3.5,5.2,4.3l9.5,1.8
	C447.1,251.4,450,254.4,450,258.3L450,258.3L450,258.3z M468.1,267.3h-14.4v-0.6c3.4-0.9,4.1-1.7,4.1-6.5v-15.4
	c0-4.8-0.7-5.6-4.1-6.5v-0.6h14.4v0.6c-3.4,0.9-4.1,1.7-4.1,6.5v15.4c0,4.8,0.7,5.6,4.1,6.5C468.1,266.7,468.1,267.3,468.1,267.3z
	 M473.2,237.7h29.8l1,10.6h-0.6c-3.8-6.9-5.9-8-9.7-8h-2.5v19.9c0,4.8,0.7,5.6,4.5,6.5v0.6h-15.2v-0.6c3.8-0.9,4.5-1.7,4.5-6.5
	v-19.9h-2.5c-3.8,0-5.8,1.1-9.7,8h-0.6L473.2,237.7L473.2,237.7z M516.1,267.3v-0.6c3.8-0.9,4.5-1.7,4.5-6.5V256l-9.8-13.4
	c-1.6-2.2-2.9-3.3-5-4.3v-0.6h13.7v0.6c-3.1,0.9-3.1,2.1-1.5,4.3l7.9,10.6l7-9.3c1.7-2.3,1.3-4.1-3.5-5.5v-0.6h12.2v0.6
	c-2.1,1-3.5,2.2-5,4.3l-9.8,13.4v4.2c0,4.8,0.7,5.6,4.5,6.5v0.6L516.1,267.3L516.1,267.3z"/>
<linearGradient id="SVGID_1_" gradientUnits="userSpaceOnUse" x1="137.6367" y1="182.0039" x2="221.6373" y2="152.4898" gradientTransform="matrix(1 0 0 -1 -120.9449 379.3622)">
	<stop  offset="0" style="stop-color:#FEEEB6"/>
	<stop  offset="1" style="stop-color:#B49248"/>
</linearGradient>
<path class="st1" d="M81.7,172H54.3v1.3c8.2,5.6,12.2,10,17.3,21l39.5,84.5h17.7L81.7,172z"/>
<linearGradient id="SVGID_00000169550044629724413340000008705997875296794771_" gradientUnits="userSpaceOnUse" x1="204.5976" y1="238.7178" x2="268.631" y2="85.9732" gradientTransform="matrix(1 0 0 -1 -120.9449 379.3622)">
	<stop  offset="0" style="stop-color:#FEEEB6"/>
	<stop  offset="1" style="stop-color:#B49248"/>
</linearGradient>
<path style="fill:url(#SVGID_00000169550044629724413340000008705997875296794771_);" d="M128.8,278.7v-37.3L107,194.7
	c-5.1-10.9-3.8-16.4,4.9-21.4V172H81.7C81.7,172,128.8,278.7,128.8,278.7z"/>
<linearGradient id="SVGID_00000038377301881607272410000010072673793857740958_" gradientUnits="userSpaceOnUse" x1="271.7441" y1="212.1384" x2="302.4964" y2="94.9571" gradientTransform="matrix(1 0 0 -1 -120.9449 379.3622)">
	<stop  offset="0" style="stop-color:#FEEEB6"/>
	<stop  offset="1" style="stop-color:#B49248"/>
</linearGradient>
<path style="fill:url(#SVGID_00000038377301881607272410000010072673793857740958_);" d="M175.9,172h27.4v1.3
	c-8.2,5.6-12.2,10-17.3,21l-39.5,84.5h-17.7L175.9,172z"/>
<linearGradient id="SVGID_00000114791641872665649100000018412183780956202117_" gradientUnits="userSpaceOnUse" x1="225.5119" y1="211.4444" x2="282.0889" y2="143.3972" gradientTransform="matrix(1 0 0 -1 -120.9449 379.3622)">
	<stop  offset="0" style="stop-color:#FEEEB6"/>
	<stop  offset="1" style="stop-color:#B49248"/>
</linearGradient>
<path style="fill:url(#SVGID_00000114791641872665649100000018412183780956202117_);" d="M128.8,278.7v-37.3l21.8-46.8
	c5.1-10.9,3.8-16.4-4.9-21.4V172h30.1L128.8,278.7L128.8,278.7z"/>
</svg>
